<?xml version="1.0" encoding="UTF-8" standalone="no"?><svg xmlns="http://www.w3.org/2000/svg" xmlns:xlink="http://www.w3.org/1999/xlink" contentScriptType="application/ecmascript" contentStyleType="text/css" height="642px" preserveAspectRatio="none" style="width:1128px;height:642px;" version="1.1" viewBox="0 0 1128 642" width="1128px" zoomAndPan="magnify"><defs/><g><text fill="#000000" font-family="sans-serif" font-size="18" lengthAdjust="spacingAndGlyphs" textLength="291" x="424.5" y="16.708">C3 - View Checklist (Guest Flow)</text><!--MD5=[0754fe69ac3af9334601915612cb61f4]
cluster Presentation Layer--><polygon fill="#FFFFFF" points="376,44.9531,532,44.9531,539,67.25,572,67.25,572,261.9531,376,261.9531,376,44.9531" style="stroke: #000000; stroke-width: 1.5;"/><line style="stroke: #000000; stroke-width: 1.5;" x1="376" x2="539" y1="67.25" y2="67.25"/><text fill="#000000" font-family="sans-serif" font-size="14" font-weight="bold" lengthAdjust="spacingAndGlyphs" textLength="150" x="380" y="59.9482">Presentation Layer</text><!--MD5=[de6cf97a447c0cb999a0ecd0089df131]
cluster Application Layer--><polygon fill="#FFFFFF" points="22,285.9531,164,285.9531,171,308.25,675,308.25,675,630.9531,22,630.9531,22,285.9531" style="stroke: #000000; stroke-width: 1.5;"/><line style="stroke: #000000; stroke-width: 1.5;" x1="22" x2="171" y1="308.25" y2="308.25"/><text fill="#000000" font-family="sans-serif" font-size="14" font-weight="bold" lengthAdjust="spacingAndGlyphs" textLength="136" x="26" y="300.9482">Application Layer</text><!--MD5=[cc167570a590d8dbd4742108b55f98b1]
cluster Domain Layer--><polygon fill="#FFFFFF" points="699,398.9531,812,398.9531,819,421.25,927,421.25,927,502.9531,699,502.9531,699,398.9531" style="stroke: #000000; stroke-width: 1.5;"/><line style="stroke: #000000; stroke-width: 1.5;" x1="699" x2="819" y1="421.25" y2="421.25"/><text fill="#000000" font-family="sans-serif" font-size="14" font-weight="bold" lengthAdjust="spacingAndGlyphs" textLength="107" x="703" y="413.9482">Domain Layer</text><!--MD5=[fc9d01843663843f76fa1b021ee06788]
cluster Infrastructure Layer--><polygon fill="#FFFFFF" points="699,526.9531,864,526.9531,871,549.25,1106,549.25,1106,630.9531,699,630.9531,699,526.9531" style="stroke: #000000; stroke-width: 1.5;"/><line style="stroke: #000000; stroke-width: 1.5;" x1="699" x2="871" y1="549.25" y2="549.25"/><text fill="#000000" font-family="sans-serif" font-size="14" font-weight="bold" lengthAdjust="spacingAndGlyphs" textLength="159" x="703" y="541.9482">Infrastructure Layer</text><!--MD5=[e513ac52113a1d568faac52cb35a40d2]
entity ChecklistViewScreen--><rect fill="#FEFECE" height="52.5938" style="stroke: #A80036; stroke-width: 1.5;" width="164" x="392" y="79.9531"/><rect fill="#FEFECE" height="5" style="stroke: #A80036; stroke-width: 1.5;" width="10" x="387" y="84.9531"/><rect fill="#FEFECE" height="5" style="stroke: #A80036; stroke-width: 1.5;" width="10" x="387" y="122.5469"/><text fill="#000000" font-family="sans-serif" font-size="14" font-style="italic" lengthAdjust="spacingAndGlyphs" textLength="67" x="440.5" y="102.9482">«Screen»</text><text fill="#000000" font-family="sans-serif" font-size="14" lengthAdjust="spacingAndGlyphs" textLength="144" x="402" y="119.2451">ChecklistViewScreen</text><!--MD5=[2b6b1e73b5f6d79d3d4bd384f125fcd6]
entity ChecklistViewer--><rect fill="#FEFECE" height="52.5938" style="stroke: #A80036; stroke-width: 1.5;" width="129" x="409.5" y="192.9531"/><rect fill="#FEFECE" height="5" style="stroke: #A80036; stroke-width: 1.5;" width="10" x="404.5" y="197.9531"/><rect fill="#FEFECE" height="5" style="stroke: #A80036; stroke-width: 1.5;" width="10" x="404.5" y="235.5469"/><text fill="#000000" font-family="sans-serif" font-size="14" font-style="italic" lengthAdjust="spacingAndGlyphs" textLength="100" x="424" y="215.9482">«Component»</text><text fill="#000000" font-family="sans-serif" font-size="14" lengthAdjust="spacingAndGlyphs" textLength="109" x="419.5" y="232.2451">ChecklistViewer</text><!--MD5=[63610bb3122f74c4ca354f888bf33af3]
entity ViewChecklistInput--><rect fill="#FEFECE" height="52.5938" style="stroke: #A80036; stroke-width: 1.5;" width="150" x="509" y="320.9531"/><rect fill="#FEFECE" height="5" style="stroke: #A80036; stroke-width: 1.5;" width="10" x="504" y="325.9531"/><rect fill="#FEFECE" height="5" style="stroke: #A80036; stroke-width: 1.5;" width="10" x="504" y="363.5469"/><text fill="#000000" font-family="sans-serif" font-size="14" font-style="italic" lengthAdjust="spacingAndGlyphs" textLength="113" x="527.5" y="343.9482">«InputContract»</text><text fill="#000000" font-family="sans-serif" font-size="14" lengthAdjust="spacingAndGlyphs" textLength="130" x="519" y="360.2451">ViewChecklistInput</text><!--MD5=[28130294b07d72c677533068dca03df6]
entity GuestViewChecklistUseCase--><rect fill="#FEFECE" height="52.5938" style="stroke: #A80036; stroke-width: 1.5;" width="219" x="254.5" y="320.9531"/><rect fill="#FEFECE" height="5" style="stroke: #A80036; stroke-width: 1.5;" width="10" x="249.5" y="325.9531"/><rect fill="#FEFECE" height="5" style="stroke: #A80036; stroke-width: 1.5;" width="10" x="249.5" y="363.5469"/><text fill="#000000" font-family="sans-serif" font-size="14" font-style="italic" lengthAdjust="spacingAndGlyphs" textLength="78" x="325" y="343.9482">«UseCase»</text><text fill="#000000" font-family="sans-serif" font-size="14" lengthAdjust="spacingAndGlyphs" textLength="199" x="264.5" y="360.2451">GuestViewChecklistUseCase</text><!--MD5=[aa80933b1a1e009af423e95f121083dc]
entity GuestViewChecklistOutput--><rect fill="#FEFECE" height="52.5938" style="stroke: #A80036; stroke-width: 1.5;" width="205" x="37.5" y="433.9531"/><rect fill="#FEFECE" height="5" style="stroke: #A80036; stroke-width: 1.5;" width="10" x="32.5" y="438.9531"/><rect fill="#FEFECE" height="5" style="stroke: #A80036; stroke-width: 1.5;" width="10" x="32.5" y="476.5469"/><text fill="#000000" font-family="sans-serif" font-size="14" font-style="italic" lengthAdjust="spacingAndGlyphs" textLength="125" x="77.5" y="456.9482">«OutputContract»</text><text fill="#000000" font-family="sans-serif" font-size="14" lengthAdjust="spacingAndGlyphs" textLength="185" x="47.5" y="473.2451">GuestViewChecklistOutput</text><!--MD5=[6002e6e2455bbbd5a0bd18f2e56e33b3]
entity GuestChecklistDTO--><rect fill="#FEFECE" height="52.5938" style="stroke: #A80036; stroke-width: 1.5;" width="156" x="62" y="561.9531"/><rect fill="#FEFECE" height="5" style="stroke: #A80036; stroke-width: 1.5;" width="10" x="57" y="566.9531"/><rect fill="#FEFECE" height="5" style="stroke: #A80036; stroke-width: 1.5;" width="10" x="57" y="604.5469"/><text fill="#000000" font-family="sans-serif" font-size="14" font-style="italic" lengthAdjust="spacingAndGlyphs" textLength="49" x="115.5" y="584.9482">«DTO»</text><text fill="#000000" font-family="sans-serif" font-size="14" lengthAdjust="spacingAndGlyphs" textLength="136" x="72" y="601.2451">GuestChecklistDTO</text><!--MD5=[d4285722a0e72704dd2fa6b2a783c5d6]
entity IGuestChecklistStorage--><rect fill="#FEFECE" height="52.5938" style="stroke: #A80036; stroke-width: 1.5;" width="182" x="278" y="433.9531"/><rect fill="#FEFECE" height="5" style="stroke: #A80036; stroke-width: 1.5;" width="10" x="273" y="438.9531"/><rect fill="#FEFECE" height="5" style="stroke: #A80036; stroke-width: 1.5;" width="10" x="273" y="476.5469"/><text fill="#000000" font-family="sans-serif" font-size="14" font-style="italic" lengthAdjust="spacingAndGlyphs" textLength="79" x="329.5" y="456.9482">«Interface»</text><text fill="#000000" font-family="sans-serif" font-size="14" lengthAdjust="spacingAndGlyphs" textLength="162" x="288" y="473.2451">IGuestChecklistStorage</text><!--MD5=[f114bfa479c39de2c51e8280f2ff20fa]
entity IGuestCheckStorage--><rect fill="#FEFECE" height="52.5938" style="stroke: #A80036; stroke-width: 1.5;" width="163" x="495.5" y="433.9531"/><rect fill="#FEFECE" height="5" style="stroke: #A80036; stroke-width: 1.5;" width="10" x="490.5" y="438.9531"/><rect fill="#FEFECE" height="5" style="stroke: #A80036; stroke-width: 1.5;" width="10" x="490.5" y="476.5469"/><text fill="#000000" font-family="sans-serif" font-size="14" font-style="italic" lengthAdjust="spacingAndGlyphs" textLength="79" x="537.5" y="456.9482">«Interface»</text><text fill="#000000" font-family="sans-serif" font-size="14" lengthAdjust="spacingAndGlyphs" textLength="143" x="505.5" y="473.2451">IGuestCheckStorage</text><!--MD5=[e8e5f4ac2787e5b9cca071c87fe630ba]
entity Checklist--><rect fill="#FEFECE" height="52.5938" style="stroke: #A80036; stroke-width: 1.5;" width="83" x="827.5" y="433.9531"/><rect fill="#FEFECE" height="5" style="stroke: #A80036; stroke-width: 1.5;" width="10" x="822.5" y="438.9531"/><rect fill="#FEFECE" height="5" style="stroke: #A80036; stroke-width: 1.5;" width="10" x="822.5" y="476.5469"/><text fill="#000000" font-family="sans-serif" font-size="14" font-style="italic" lengthAdjust="spacingAndGlyphs" textLength="57" x="840.5" y="456.9482">«Entity»</text><text fill="#000000" font-family="sans-serif" font-size="14" lengthAdjust="spacingAndGlyphs" textLength="63" x="837.5" y="473.2451">Checklist</text><!--MD5=[c31692a536a995ac2068114356b61fdc]
entity Check--><rect fill="#FEFECE" height="52.5938" style="stroke: #A80036; stroke-width: 1.5;" width="77" x="715.5" y="433.9531"/><rect fill="#FEFECE" height="5" style="stroke: #A80036; stroke-width: 1.5;" width="10" x="710.5" y="438.9531"/><rect fill="#FEFECE" height="5" style="stroke: #A80036; stroke-width: 1.5;" width="10" x="710.5" y="476.5469"/><text fill="#000000" font-family="sans-serif" font-size="14" font-style="italic" lengthAdjust="spacingAndGlyphs" textLength="57" x="725.5" y="456.9482">«Entity»</text><text fill="#000000" font-family="sans-serif" font-size="14" lengthAdjust="spacingAndGlyphs" textLength="44" x="732" y="473.2451">Check</text><!--MD5=[c78daceb7c87a2a4412d836b88a6b522]
entity GuestChecklistStorage--><rect fill="#FEFECE" height="52.5938" style="stroke: #A80036; stroke-width: 1.5;" width="179" x="715.5" y="561.9531"/><rect fill="#FEFECE" height="5" style="stroke: #A80036; stroke-width: 1.5;" width="10" x="710.5" y="566.9531"/><rect fill="#FEFECE" height="5" style="stroke: #A80036; stroke-width: 1.5;" width="10" x="710.5" y="604.5469"/><text fill="#000000" font-family="sans-serif" font-size="14" font-style="italic" lengthAdjust="spacingAndGlyphs" textLength="60" x="775" y="584.9482">«Query»</text><text fill="#000000" font-family="sans-serif" font-size="14" lengthAdjust="spacingAndGlyphs" textLength="159" x="725.5" y="601.2451">GuestChecklistStorage</text><!--MD5=[0bcdd96dc2289ed2a45b38f7a9768e46]
entity GuestCheckStorage--><rect fill="#FEFECE" height="52.5938" style="stroke: #A80036; stroke-width: 1.5;" width="160" x="930" y="561.9531"/><rect fill="#FEFECE" height="5" style="stroke: #A80036; stroke-width: 1.5;" width="10" x="925" y="566.9531"/><rect fill="#FEFECE" height="5" style="stroke: #A80036; stroke-width: 1.5;" width="10" x="925" y="604.5469"/><text fill="#000000" font-family="sans-serif" font-size="14" font-style="italic" lengthAdjust="spacingAndGlyphs" textLength="60" x="980" y="584.9482">«Query»</text><text fill="#000000" font-family="sans-serif" font-size="14" lengthAdjust="spacingAndGlyphs" textLength="140" x="940" y="601.2451">GuestCheckStorage</text><!--MD5=[8ddfed6f42beda2356769a26c3eb2bbb]
link ChecklistViewScreen to ChecklistViewer--><path d="M474,133.2331 C474,133.2331 474,187.8631 474,187.8631 " fill="none" id="ChecklistViewScreen-&gt;ChecklistViewer" style="stroke: #A80036; stroke-width: 1.0;"/><polygon fill="#A80036" points="474,192.8631,478,183.8631,474,187.8631,470,183.8631,474,192.8631" style="stroke: #A80036; stroke-width: 1.0;"/><!--MD5=[36e61a64a627b753136d0381da07d057]
link ChecklistViewer to ViewChecklistInput--><path d="M523.75,245.9731 C523.75,245.9731 523.75,315.5231 523.75,315.5231 " fill="none" id="ChecklistViewer-&gt;ViewChecklistInput" style="stroke: #A80036; stroke-width: 1.0;"/><polygon fill="#A80036" points="523.75,320.5231,527.75,311.5231,523.75,315.5231,519.75,311.5231,523.75,320.5231" style="stroke: #A80036; stroke-width: 1.0;"/><!--MD5=[68fdea84bd909fcd85151267d0a36ceb]
link ChecklistViewer to GuestViewChecklistUseCase--><path d="M441.5,245.9731 C441.5,245.9731 441.5,315.5231 441.5,315.5231 " fill="none" id="ChecklistViewer-&gt;GuestViewChecklistUseCase" style="stroke: #A80036; stroke-width: 1.0;"/><polygon fill="#A80036" points="441.5,320.5231,445.5,311.5231,441.5,315.5231,437.5,311.5231,441.5,320.5231" style="stroke: #A80036; stroke-width: 1.0;"/><!--MD5=[8c3be017495bc329deab5aa8468791f6]
link GuestViewChecklistUseCase to IGuestChecklistStorage--><path d="M369,374.2331 C369,374.2331 369,428.8631 369,428.8631 " fill="none" id="GuestViewChecklistUseCase-&gt;IGuestChecklistStorage" style="stroke: #A80036; stroke-width: 1.0;"/><polygon fill="#A80036" points="369,433.8631,373,424.8631,369,428.8631,365,424.8631,369,433.8631" style="stroke: #A80036; stroke-width: 1.0;"/><!--MD5=[7a7d700a38fc856b29215f03c9890c39]
link IGuestChecklistStorage to GuestChecklistStorage--><path d="M369,487.0831 C369,524.7131 369,588.9531 369,588.9531 C369,588.9531 710.45,588.9531 710.45,588.9531 " fill="none" id="IGuestChecklistStorage-&gt;GuestChecklistStorage" style="stroke: #A80036; stroke-width: 1.0;"/><polygon fill="#A80036" points="715.45,588.9531,706.45,584.9531,710.45,588.9531,706.45,592.9531,715.45,588.9531" style="stroke: #A80036; stroke-width: 1.0;"/><!--MD5=[19a2b316545875dc97e0ac39b22290e2]
link GuestViewChecklistUseCase to IGuestCheckStorage--><path d="M470.12,374.0631 C470.12,407.6131 470.12,460.9531 470.12,460.9531 C470.12,460.9531 490.45,460.9531 490.45,460.9531 " fill="none" id="GuestViewChecklistUseCase-&gt;IGuestCheckStorage" style="stroke: #A80036; stroke-width: 1.0;"/><polygon fill="#A80036" points="495.45,460.9531,486.45,456.9531,490.45,460.9531,486.45,464.9531,495.45,460.9531" style="stroke: #A80036; stroke-width: 1.0;"/><!--MD5=[04d393ef20484270d392b0e0f9f968c1]
link IGuestCheckStorage to GuestCheckStorage--><path d="M577,487.0631 C577,504.8231 577,524.9531 577,524.9531 C577,524.9531 1010,524.9531 1010,524.9531 C1010,524.9531 1010,556.8931 1010,556.8931 " fill="none" id="IGuestCheckStorage-&gt;GuestCheckStorage" style="stroke: #A80036; stroke-width: 1.0;"/><polygon fill="#A80036" points="1010,561.8931,1014,552.8931,1010,556.8931,1006,552.8931,1010,561.8931" style="stroke: #A80036; stroke-width: 1.0;"/><!--MD5=[2a25d79b36469c857c47959e112e3f9f]
link GuestViewChecklistUseCase to Checklist--><path d="M466.75,373.9631 C466.75,384.4031 466.75,393.9531 466.75,393.9531 C466.75,393.9531 869,393.9531 869,393.9531 C869,393.9531 869,428.7931 869,428.7931 " fill="none" id="GuestViewChecklistUseCase-&gt;Checklist" style="stroke: #A80036; stroke-width: 1.0;"/><polygon fill="#A80036" points="869,433.7931,873,424.7931,869,428.7931,865,424.7931,869,433.7931" style="stroke: #A80036; stroke-width: 1.0;"/><!--MD5=[d799f7a197e04512a2502da261a9a61b]
link GuestViewChecklistUseCase to Check--><path d="M463.38,374.1131 C463.38,392.6231 463.38,413.9531 463.38,413.9531 C463.38,413.9531 754,413.9531 754,413.9531 C754,413.9531 754,428.9431 754,428.9431 " fill="none" id="GuestViewChecklistUseCase-&gt;Check" style="stroke: #A80036; stroke-width: 1.0;"/><polygon fill="#A80036" points="754,433.9431,758,424.9431,754,428.9431,750,424.9431,754,433.9431" style="stroke: #A80036; stroke-width: 1.0;"/><!--MD5=[f2de5a131531d47c204e69d2941bdc4a]
link GuestViewChecklistUseCase to GuestViewChecklistOutput--><path d="M266.25,374.0631 C266.25,407.6131 266.25,460.9531 266.25,460.9531 C266.25,460.9531 247.5,460.9531 247.5,460.9531 " fill="none" id="GuestViewChecklistUseCase-&gt;GuestViewChecklistOutput" style="stroke: #A80036; stroke-width: 1.0;"/><polygon fill="#A80036" points="242.5,460.9531,251.5,464.9531,247.5,460.9531,251.5,456.9531,242.5,460.9531" style="stroke: #A80036; stroke-width: 1.0;"/><!--MD5=[9bf25b7f0d7894bb9fc5c201518f159a]
link GuestViewChecklistOutput to GuestChecklistDTO--><path d="M140,486.9731 C140,486.9731 140,556.5231 140,556.5231 " fill="none" id="GuestViewChecklistOutput-&gt;GuestChecklistDTO" style="stroke: #A80036; stroke-width: 1.0;"/><polygon fill="#A80036" points="140,561.5231,144,552.5231,140,556.5231,136,552.5231,140,561.5231" style="stroke: #A80036; stroke-width: 1.0;"/><!--MD5=[5065208c5083fd4ddae435273282a656]
@startuml ViewChecklistGuestC3


skinparam linetype ortho
skinparam shadowing false
skinparam componentStyle rectangle

title C3 - View Checklist (Guest Flow)

package "Presentation Layer" {
  [ChecklistViewScreen] <<Screen>>
  [ChecklistViewer] <<Component>>
}

package "Application Layer" {
  [ViewChecklistInput] <<InputContract>>
  [GuestViewChecklistUseCase] <<UseCase>>
  [GuestViewChecklistOutput] <<OutputContract>>
  [GuestChecklistDTO] <<DTO>>

  [IGuestChecklistStorage] <<Interface>>
  [IGuestCheckStorage] <<Interface>>
}

package "Domain Layer" {
  [Checklist] <<Entity>>
  [Check] <<Entity>>
}

package "Infrastructure Layer" {
  [GuestChecklistStorage] <<Query>>
  [GuestCheckStorage] <<Query>>
}

[ChecklistViewScreen] - -> [ChecklistViewer]
[ChecklistViewer] - -> [ViewChecklistInput]
[ChecklistViewer] - -> [GuestViewChecklistUseCase]
[GuestViewChecklistUseCase] - -> [IGuestChecklistStorage]
[IGuestChecklistStorage] - -> [GuestChecklistStorage]
[GuestViewChecklistUseCase] - -> [IGuestCheckStorage]
[IGuestCheckStorage] - -> [GuestCheckStorage]
[GuestViewChecklistUseCase] - -> [Checklist]
[GuestViewChecklistUseCase] - -> [Check]
[GuestViewChecklistUseCase] - -> [GuestViewChecklistOutput]
[GuestViewChecklistOutput] - -> [GuestChecklistDTO]

@enduml

PlantUML version 1.2020.02(Sun Mar 01 10:22:07 UTC 2020)
(GPL source distribution)
Java Runtime: OpenJDK Runtime Environment
JVM: OpenJDK 64-Bit Server VM
Java Version: 17.0.16+8
Operating System: Linux
Default Encoding: UTF-8
Language: en
Country: null
--></g></svg>